<?xml version="1.0" encoding="UTF-8"?>
<svg version="1.1" xmlns="http://www.w3.org/2000/svg" width="256" height="256">
<path d="M0 0 C84.48 0 168.96 0 256 0 C256 84.48 256 168.96 256 256 C171.52 256 87.04 256 0 256 C0 171.52 0 87.04 0 0 Z " fill="#010101" transform="translate(0,0)"/>
<path d="M0 0 C5.8583218 -0.19313149 9.14374586 -0.10090113 14.13671875 3.14453125 C17.1733137 2.88425168 17.94680455 2.33444545 20.13671875 0.14453125 C21.12671875 0.14453125 22.11671875 0.14453125 23.13671875 0.14453125 C23.13671875 5.42453125 23.13671875 10.70453125 23.13671875 16.14453125 C21.81671875 16.14453125 20.49671875 16.14453125 19.13671875 16.14453125 C18.91757813 15.62503906 18.6984375 15.10554688 18.47265625 14.5703125 C16.11909551 9.39439234 14.02816506 6.15465206 9.13671875 3.14453125 C6.16579742 2.55823937 4.2280649 2.7391088 1.13671875 3.14453125 C-0.94397667 4.69073611 -1.73576832 5.63447952 -2.3671875 8.16015625 C-2.38652344 8.8975 -2.40585938 9.63484375 -2.42578125 10.39453125 C-2.46832031 11.1215625 -2.51085937 11.84859375 -2.5546875 12.59765625 C-1.74695559 16.29349637 -1.74695559 16.29349637 4.13671875 22.14453125 C-2.46328125 22.14453125 -9.06328125 22.14453125 -15.86328125 22.14453125 C-17.42987294 17.44475619 -17.80867664 13.02794054 -16.86328125 8.14453125 C-14.07922079 4.17914488 -10.67822557 1.76326227 -6.11328125 0.20703125 C-4.07472954 0.16782833 -2.03633601 0.10278913 0 0 Z " fill="#F8F8F8" transform="translate(160.86328125,89.85546875)"/>
<path d="M0 0 C2.81256281 -0.02684312 5.62487241 -0.04676188 8.4375 -0.0625 C9.64116211 -0.07506836 9.64116211 -0.07506836 10.86914062 -0.08789062 C12.91295221 -0.0965143 14.95683902 -0.0522815 17 0 C18 1 18 1 18.3125 4.125 C17.95364573 8.57479294 16.88119635 11.63860426 14 15 C6.58957697 20.89189372 -0.66248329 21.94572285 -10 21 C-12.421875 20.03515625 -12.421875 20.03515625 -14.5 18.875 C-15.655 18.25625 -16.81 17.6375 -18 17 C-20.02274043 17.79236521 -20.02274043 17.79236521 -22 19 C-23.32 19.33 -24.64 19.66 -26 20 C-26 14.72 -26 9.44 -26 4 C-22 5 -22 5 -20.9453125 6.70703125 C-20.67460937 7.40183594 -20.40390625 8.09664062 -20.125 8.8125 C-18.13478206 13.05982335 -16.43372714 15.0652827 -12 17 C-8.21856012 17.57627168 -4.7726342 17.67095211 -1 17 C1.88256657 15.12653374 1.88256657 15.12653374 3 12 C3.58369443 8.41538144 3.58369443 8.41538144 3 5 C1.60414215 3.18523997 1.60414215 3.18523997 0 2 C0 1.34 0 0.68 0 0 Z " fill="#EDEDED" transform="translate(169,129)"/>
<path d="M0 0 C1.29808594 -0.01675781 2.59617187 -0.03351563 3.93359375 -0.05078125 C7.71422589 0.32768892 9.47357818 1.21604764 12.5625 3.3125 C15.59909495 3.05222043 16.3725858 2.5024142 18.5625 0.3125 C19.5525 0.3125 20.5425 0.3125 21.5625 0.3125 C21.5625 5.5925 21.5625 10.8725 21.5625 16.3125 C20.2425 16.3125 18.9225 16.3125 17.5625 16.3125 C17.34335938 15.79300781 17.12421875 15.27351563 16.8984375 14.73828125 C14.54235405 9.55681318 12.48856982 6.28673083 7.5625 3.3125 C4.37983542 2.57587622 1.731892 2.48214269 -1.4375 3.3125 C-7.48160878 8.84221654 -8.64609593 14.53035993 -9.4375 22.3125 C-14.0575 22.3125 -18.6775 22.3125 -23.4375 22.3125 C-23.4375 15.0735865 -21.70176116 11.62047894 -16.6875 6.5390625 C-11.16465141 1.65895922 -7.54869085 0.02244408 0 0 Z " fill="#F6F6F6" transform="translate(90.4375,89.6875)"/>
<path d="M0 0 C4.62 0 9.24 0 14 0 C14.87890625 3.25520833 15.7578125 6.51041667 16.63671875 9.765625 C18.21456897 13.50906335 19.53752801 14.91950159 23 17 C27.50577255 18.02343506 31.99980071 17.973454 36.19921875 15.9296875 C40.90407923 12.31966877 42.10772821 8.750196 43 3 C43.99 3 44.98 3 46 3 C45.41092399 9.18529813 43.10983657 13.00120746 38.625 17.25 C32.75827839 21.16114774 26.88960695 21.80158903 20 21 C11.35008613 18.84718984 5.65882193 14.37419091 1.0625 6.8125 C0 4 0 4 0 0 Z " fill="#EEEEEE" transform="translate(67,129)"/>
<path d="M0 0 C2.08533633 0.87822312 2.08533633 0.87822312 4 1 C5.58333333 -0.41666667 5.58333333 -0.41666667 7 -2 C7.99 -2 8.98 -2 10 -2 C10 3.28 10 8.56 10 14 C8.68 14 7.36 14 6 14 C5.78085938 13.48050781 5.56171875 12.96101563 5.3359375 12.42578125 C2.97565201 7.2350721 0.82165353 4.11989346 -4 1 C-7.72697218 0.11994663 -7.72697218 0.11994663 -11 0 C-11 -0.33 -11 -0.66 -11 -1 C-6.6678422 -2.27416406 -4.16510268 -1.59514571 0 0 Z " fill="#E4E4E4" transform="translate(174,92)"/>
<path d="M0 0 C2.08533633 0.87822312 2.08533633 0.87822312 4 1 C5.58333333 -0.41666667 5.58333333 -0.41666667 7 -2 C7.99 -2 8.98 -2 10 -2 C10 3.28 10 8.56 10 14 C8.68 14 7.36 14 6 14 C5.78085938 13.48050781 5.56171875 12.96101563 5.3359375 12.42578125 C2.97565201 7.2350721 0.82165353 4.11989346 -4 1 C-7.72697218 0.11994663 -7.72697218 0.11994663 -11 0 C-11 -0.33 -11 -0.66 -11 -1 C-6.6678422 -2.27416406 -4.16510268 -1.59514571 0 0 Z " fill="#E3E3E3" transform="translate(102,92)"/>
<path d="M0 0 C4 1 4 1 5.1953125 2.70703125 C5.65550781 3.74923828 5.65550781 3.74923828 6.125 4.8125 C6.43695313 5.49957031 6.74890625 6.18664062 7.0703125 6.89453125 C7.37710938 7.58933594 7.68390625 8.28414062 8 9 C8.66019538 10.33654939 9.32498341 11.67087441 10 13 C9.278125 13.12375 8.55625 13.2475 7.8125 13.375 C4.56968551 14.01636496 4.56968551 14.01636496 0 16 C0 10.72 0 5.44 0 0 Z " fill="#F1F1F1" transform="translate(143,133)"/>
<path d="M0 0 C0.99 0 1.98 0 3 0 C2.40548493 6.24240822 0.07812129 10.07773781 -4.5 14.3125 C-9.27157337 17.53331203 -12.36453638 16.9753687 -18 16 C-18 15.67 -18 15.34 -18 15 C-17.43152344 14.99742187 -16.86304687 14.99484375 -16.27734375 14.9921875 C-10.79527597 14.71762651 -7.38416523 13.6463065 -3.375 9.83203125 C-1.05283649 6.73801225 -0.58813964 3.79023322 0 0 Z " fill="#CCCCCC" transform="translate(110,132)"/>
<path d="M0 0 C2.5 0.125 2.5 0.125 3.5 1.125 C3.625 3.625 3.625 3.625 3.5 6.125 C2.5 7.125 2.5 7.125 0 7.25 C-2.5 7.125 -2.5 7.125 -3.5 6.125 C-3.625 3.625 -3.625 3.625 -3.5 1.125 C-2.5 0.125 -2.5 0.125 0 0 Z " fill="#979797" transform="translate(189.5,116.875)"/>
<path d="M0 0 C2.5 0.125 2.5 0.125 3.5 1.125 C3.625 3.625 3.625 3.625 3.5 6.125 C2.5 7.125 2.5 7.125 0 7.25 C-2.5 7.125 -2.5 7.125 -3.5 6.125 C-3.625 3.625 -3.625 3.625 -3.5 1.125 C-2.5 0.125 -2.5 0.125 0 0 Z " fill="#969696" transform="translate(95.5,116.875)"/>
<path d="M0 0 C2.625 0.375 2.625 0.375 5 1 C5.625 2.875 5.625 2.875 6 5 C5.34 5.66 4.68 6.32 4 7 C1.375 6.625 1.375 6.625 -1 6 C-1.625 4.125 -1.625 4.125 -2 2 C-1.34 1.34 -0.68 0.68 0 0 Z " fill="#535353" transform="translate(141,117)"/>
<path d="M0 0 C1.65 0 3.3 0 5 0 C5.33 1.32 5.66 2.64 6 4 C5.195625 4.12375 4.39125 4.2475 3.5625 4.375 C2.2940625 4.684375 2.2940625 4.684375 1 5 C0.67 5.66 0.34 6.32 0 7 C0 4.69 0 2.38 0 0 Z " fill="#6E6E6E" transform="translate(64,117)"/>
<path d="M0 0 C0.53625 0.45375 1.0725 0.9075 1.625 1.375 C0.635 2.86 0.635 2.86 -0.375 4.375 C-1.220625 3.570625 -2.06625 2.76625 -2.9375 1.9375 C-6.2265158 -0.84128662 -9.06129604 -1.36617776 -13.375 -1.625 C-13.375 -1.955 -13.375 -2.285 -13.375 -2.625 C-8.13434651 -4.16636867 -4.45904696 -3.05092687 0 0 Z " fill="#CECECE" transform="translate(176.375,93.625)"/>
<path d="M0 0 C0.53625 0.45375 1.0725 0.9075 1.625 1.375 C0.635 2.86 0.635 2.86 -0.375 4.375 C-1.220625 3.570625 -2.06625 2.76625 -2.9375 1.9375 C-6.2265158 -0.84128662 -9.06129604 -1.36617776 -13.375 -1.625 C-13.375 -1.955 -13.375 -2.285 -13.375 -2.625 C-8.13434651 -4.16636867 -4.45904696 -3.05092687 0 0 Z " fill="#CECECE" transform="translate(104.375,93.625)"/>
<path d="M0 0 C0.33 0 0.66 0 1 0 C1 1.65 1 3.3 1 5 C1.66 5 2.32 5 3 5 C3.33 4.01 3.66 3.02 4 2 C4.66 1.34 5.32 0.68 6 0 C6 1.98 6 3.96 6 6 C4.34385343 6.38218767 2.67542976 6.71395102 1 7 C0 6 0 6 -0.0625 2.9375 C-0.041875 1.968125 -0.02125 0.99875 0 0 Z " fill="#696969" transform="translate(160,117)"/>
<path d="M0 0 C0.66 0 1.32 0 2 0 C2.99 2.31 3.98 4.62 5 7 C4.34 7 3.68 7 3 7 C3 6.34 3 5.68 3 5 C1.68 5 0.36 5 -1 5 C-1.33 5.66 -1.66 6.32 -2 7 C-1.125 2.25 -1.125 2.25 0 0 Z " fill="#808080" transform="translate(55,117)"/>
<path d="M0 0 C2.02910711 0.25327449 4.04962145 0.57730068 6.0625 0.9375 C7.16722656 1.13214844 8.27195313 1.32679688 9.41015625 1.52734375 C10.69212891 1.76130859 10.69212891 1.76130859 12 2 C12 2.33 12 2.66 12 3 C3.80743982 4.45295405 3.80743982 4.45295405 0.4375 2.5625 C-0.036875 2.046875 -0.51125 1.53125 -1 1 C-0.67 0.67 -0.34 0.34 0 0 Z " fill="#BABABA" transform="translate(153,145)"/>
<path d="M0 0 C1.98 0.495 1.98 0.495 4 1 C3.67 2.32 3.34 3.64 3 5 C1.68 4.67 0.36 4.34 -1 4 C-0.67 2.68 -0.34 1.36 0 0 Z " fill="#040404" transform="translate(94,118)"/>
<path d="M0 0 C1.98 0.495 1.98 0.495 4 1 C3.67 2.32 3.34 3.64 3 5 C1.68 4.67 0.36 4.34 -1 4 C-0.67 2.68 -0.34 1.36 0 0 Z " fill="#030303" transform="translate(188,118)"/>
<path d="M0 0 C0.99 0 1.98 0 3 0 C2.25 5.75 2.25 5.75 0 8 C-1.09658936 4.71023192 -0.79953138 3.28696233 0 0 Z " fill="#C1C1C1" transform="translate(110,132)"/>
<path d="M0 0 C1.65 0 3.3 0 5 0 C5 4 5 4 4 6 C2 4.6875 2 4.6875 0 3 C0 2.01 0 1.02 0 0 Z " fill="#6F6F6F" transform="translate(74,117)"/>
</svg>
