<?xml version="1.0" standalone="no"?>
<!DOCTYPE svg PUBLIC "-//W3C//DTD SVG 20010904//EN"
 "http://www.w3.org/TR/2001/REC-SVG-20010904/DTD/svg10.dtd">
<svg version="1.0" xmlns="http://www.w3.org/2000/svg"
 width="256.000000pt" height="256.000000pt" viewBox="0 0 256.000000 256.000000"
 preserveAspectRatio="xMidYMid meet">

<g transform="translate(0.000000,256.000000) scale(0.100000,-0.100000)"
fill="#000000" stroke="none">
<path d="M0 1280 l0 -1280 1280 0 1280 0 0 1280 0 1280 -1280 0 -1280 0 0
-1280z m1012 357 l38 -21 25 24 c36 33 47 17 43 -66 -4 -84 -24 -97 -51 -35
-28 62 -79 101 -131 101 -38 0 -48 -5 -74 -35 -31 -34 -52 -89 -52 -133 0 -29
-14 -34 -88 -30 l-61 3 18 53 c48 141 208 208 333 139z m720 0 l38 -21 24 23
c14 13 29 20 35 16 6 -3 11 -38 11 -81 0 -65 -2 -74 -18 -74 -12 0 -25 14 -36
39 -55 126 -206 138 -206 17 0 -33 7 -47 37 -78 l37 -38 -101 0 c-114 0 -116
1 -116 83 0 117 171 183 295 114z m-1262 -256 c-33 -9 -38 -38 -8 -51 17 -7
18 -9 4 -7 -47 6 -46 68 1 66 l28 -1 -25 -7z m115 -49 c-3 -3 -8 4 -12 16 -3
12 -10 22 -15 22 -5 0 -6 5 -2 11 4 8 12 2 21 -15 8 -15 12 -31 8 -34z m108
44 c6 -15 -11 -36 -29 -36 -7 0 -15 -6 -17 -12 -3 -7 -6 4 -6 25 -1 33 2 37
23 37 13 0 26 -6 29 -14z m75 7 c-24 -6 -23 -19 3 -26 27 -7 20 -32 -9 -33
-20 -2 -20 -1 -2 3 26 6 26 19 0 26 -28 7 -26 37 3 36 16 -1 18 -2 5 -6z m105
0 c-7 -2 -14 -19 -14 -36 l-2 -32 -4 30 c-3 16 -10 33 -16 37 -7 4 2 7 18 7
17 0 24 -3 18 -6z m115 -19 c4 -27 -21 -47 -48 -39 -20 6 -28 44 -13 59 15 15
58 1 61 -20z m105 2 c3 23 4 21 5 -11 l1 -40 -24 27 -24 28 -4 -28 c-3 -19 -4
-16 -5 13 l-1 40 24 -29 23 -29 5 29z m90 17 c-27 -5 -31 -22 -5 -24 16 -1 16
-2 0 -6 -25 -6 -22 -21 5 -26 19 -4 18 -4 -5 -6 -26 -1 -28 2 -28 34 0 32 2
35 28 34 23 -2 24 -2 5 -6z m150 0 c-29 -6 -30 -19 -2 -26 23 -6 21 -31 -2
-33 -9 -1 -10 1 -1 3 17 6 15 23 -2 23 -8 0 -18 5 -21 10 -10 16 4 30 28 29
22 -2 22 -2 0 -6z m128 -9 c23 -28 -26 -73 -52 -47 -5 5 3 9 19 8 20 0 27 5
27 20 0 26 -35 32 -52 9 -7 -10 -13 -13 -13 -8 0 32 49 44 71 18z m82 -47 c18
-4 17 -5 -5 -6 -26 -1 -28 2 -26 37 1 36 1 36 5 5 3 -23 10 -33 26 -36z m89 5
c12 -2 18 5 21 30 l4 33 1 -33 c1 -21 -3 -35 -13 -38 -22 -9 -45 15 -44 45 1
25 2 25 8 -4 3 -16 14 -31 23 -33z m121 51 c-7 -2 -14 -19 -14 -36 l-2 -32 -4
30 c-3 16 -10 33 -16 37 -7 4 2 7 18 7 17 0 24 -3 18 -6z m54 -45 c-2 -13 -4
-5 -4 17 -1 22 1 32 4 23 2 -10 2 -28 0 -40z m120 36 c8 -22 -10 -49 -32 -49
-10 0 -22 7 -28 16 -15 24 -1 49 28 49 15 0 28 -7 32 -16z m106 -8 c3 23 4 21
5 -11 l1 -40 -24 27 -24 28 -4 -28 c-3 -19 -4 -16 -5 13 l-1 40 24 -29 23 -29
5 29z m85 17 c-24 -6 -23 -19 3 -26 28 -7 19 -31 -12 -34 l-24 -2 25 8 25 7
-22 12 c-13 7 -23 19 -23 27 0 9 9 15 23 14 16 -1 18 -2 5 -6z m-1577 -50
c-12 -20 -14 -14 -5 12 4 9 9 14 11 11 3 -2 0 -13 -6 -23z m279 -127 c22 -69
51 -103 100 -116 72 -19 160 35 181 112 5 21 14 38 19 38 28 0 -15 -96 -59
-133 -108 -90 -309 -38 -372 98 -30 64 -27 66 47 63 l66 -3 18 -59z m1044 11
c0 -60 -25 -94 -89 -127 -67 -33 -171 -35 -234 -3 -44 22 -44 22 -69 3 -14
-11 -29 -20 -33 -20 -5 0 -9 36 -9 80 0 93 15 106 45 39 58 -128 228 -143 251
-22 5 27 2 41 -15 63 -11 16 -21 32 -21 35 0 3 39 4 88 3 l87 -3 -1 -48z"/>
<path d="M650 1365 c0 -10 7 -15 18 -13 21 4 19 22 -2 26 -10 2 -16 -3 -16
-13z"/>
<path d="M932 1358 c4 -30 43 -33 43 -3 0 13 -8 21 -23 23 -20 3 -23 0 -20
-20z"/>
<path d="M1874 1365 c-4 -9 -2 -21 4 -27 15 -15 44 -1 40 19 -4 23 -36 29 -44
8z"/>
</g>
</svg>
